<svg xmlns="http://www.w3.org/2000/svg" viewBox="-8 -8 67.61 72.83">
  <path fill="#000000" d="M4.585 55.73L14.76 45.555l1.096 1.096L5.681 56.826zM.22 55.741l12.905-12.904 1.096 1.096L1.316 56.837zM.006 51.579l13.18-13.18 1.09 1.088-13.181 13.18zM.006 47.209l13.18-13.18 1.089 1.088-13.18 13.18zM.006 42.839l13.18-13.18 1.089 1.088-13.18 13.18zM37.583 25.875l10.932-10.931 1.09 1.089-10.933 10.931zM37.045 22.05l9.836-9.836 1.096 1.096-9.836 9.836zM36.125 18.6l9.015-9.015 1.09 1.089-9.016 9.015zM34.62 15.742l8.472-8.471L44.18 8.36l-8.471 8.47zM32.565 13.41l8.195-8.195 1.096 1.096-8.195 8.195zM30.075 11.531l7.948-7.948 1.096 1.096-7.948 7.948z"/>
  <path d="M49.33 16.48l-11.1 11.1v.54a24.67 24.67 0 0 1-1.08 7.57 16.14 16.14 0 0 1-3.11 5.7 13.38 13.38 0 0 1-5 3.59 16.75 16.75 0 0 1-6.68 1.26h-2.79l-10 10h12.84a32.72 32.72 0 0 0 12-2.1 27 27 0 0 0 9.21-5.87 26.38 26.38 0 0 0 5.93-8.93 29.58 29.58 0 0 0 2.1-11.26 29.48 29.48 0 0 0-2.1-11.22z" fill="#000000"/>
  <path d="M13.68 10h8.73a16.75 16.75 0 0 1 6.68 1.26 13.12 13.12 0 0 1 1.5.75l7.91-7.88a31 31 0 0 0-4.13-2A32.51 32.51 0 0 0 22.41 0H.55v42.09L13.68 29z" fill="#000000"/>
</svg>
